<svg width="150" height="150" viewBox="0 0 150 150" fill="none" xmlns="http://www.w3.org/2000/svg">
<circle cx="75" cy="75" r="75" fill="#444143"/>
<path d="M60.8153 92H34.5614C34.8622 89.4076 35.7717 86.9727 37.2899 84.6953C38.8225 82.4036 41.6871 79.7038 45.8837 76.5957C48.4475 74.6908 50.0874 73.2441 50.8036 72.2559C51.5197 71.2676 51.8778 70.3294 51.8778 69.4414C51.8778 68.4818 51.5197 67.6654 50.8036 66.9922C50.1018 66.3047 49.2137 65.9609 48.1395 65.9609C47.0223 65.9609 46.1057 66.3118 45.3895 67.0137C44.6877 67.7155 44.2151 68.9544 43.9716 70.7305L35.2059 70.0215C35.5497 67.5579 36.1799 65.6387 37.0966 64.2637C38.0132 62.8743 39.3023 61.8145 40.9637 61.084C42.6395 60.3392 44.9527 59.9668 47.9032 59.9668C50.9826 59.9668 53.3746 60.3177 55.079 61.0195C56.7977 61.7214 58.1441 62.8027 59.118 64.2637C60.1063 65.7103 60.6005 67.3359 60.6005 69.1406C60.6005 71.0599 60.0347 72.8932 58.9032 74.6406C57.786 76.388 55.745 78.3073 52.7802 80.3984C51.0184 81.6159 49.8368 82.4681 49.2352 82.9551C48.648 83.4421 47.9533 84.0794 47.1512 84.8672H60.8153V92ZM61.4736 76.123C61.4736 70.1361 62.5478 65.9466 64.6963 63.5547C66.859 61.1628 70.1461 59.9668 74.5576 59.9668C76.6774 59.9668 78.4176 60.2318 79.7783 60.7617C81.139 61.2773 82.249 61.9577 83.1084 62.8027C83.9677 63.6335 84.6409 64.5143 85.1279 65.4453C85.6292 66.362 86.0302 67.4362 86.331 68.668C86.9183 71.0169 87.2119 73.4661 87.2119 76.0156C87.2119 81.7305 86.2451 85.9128 84.3115 88.5625C82.3779 91.2122 79.0478 92.5371 74.3213 92.5371C71.6715 92.5371 69.5302 92.1146 67.8974 91.2695C66.2646 90.4245 64.9254 89.1855 63.8798 87.5527C63.1207 86.3926 62.5263 84.8099 62.0966 82.8047C61.6813 80.7852 61.4736 78.5579 61.4736 76.123ZM70.1533 76.1445C70.1533 80.1549 70.5042 82.8978 71.206 84.373C71.9222 85.834 72.9534 86.5645 74.2998 86.5645C75.1878 86.5645 75.9541 86.2565 76.5986 85.6406C77.2574 85.0104 77.7373 84.0221 78.038 82.6758C78.3532 81.3294 78.5107 79.2311 78.5107 76.3809C78.5107 72.1986 78.1526 69.3913 77.4365 67.959C76.7347 66.5124 75.6748 65.7891 74.2568 65.7891C72.8102 65.7891 71.7646 66.5267 71.1201 68.002C70.4755 69.4629 70.1533 72.1771 70.1533 76.1445ZM100.28 72.793H108.509V64.5215H115.448V72.793H123.72V79.7539H115.448V87.9824H108.509V79.7539H100.28V72.793Z" fill="#FAE2D4"/>
</svg>
