<svg width="166" height="165" viewBox="0 0 166 165" fill="none" xmlns="http://www.w3.org/2000/svg">
<g clip-path="url(#clip0_34_104)">
<path d="M11.7523 82.5003C11.7523 110.515 28.0675 134.725 51.7259 146.198L17.8929 53.6966C13.9575 62.4988 11.7523 72.2396 11.7523 82.5003ZM130.56 78.9288C130.56 70.1818 127.411 64.1243 124.711 59.4094C121.115 53.5794 117.745 48.6423 117.745 42.8124C117.745 36.3063 122.69 30.2501 129.655 30.2501C129.97 30.2501 130.268 30.2892 130.575 30.3067C117.956 18.7706 101.144 11.7273 82.6788 11.7273C57.9003 11.7273 36.1003 24.4134 23.4181 43.6285C25.0822 43.6783 26.6504 43.7133 27.9825 43.7133C35.4012 43.7133 46.8849 42.8151 46.8849 42.8151C50.7083 42.5901 51.159 48.1939 47.3397 48.645C47.3397 48.645 43.4974 49.0962 39.2219 49.3197L65.0504 125.982L80.5721 79.5294L69.5216 49.317C65.7023 49.0935 62.084 48.6423 62.084 48.6423C58.262 48.4188 58.71 42.5875 62.5321 42.8124C62.5321 42.8124 74.2452 43.7106 81.2145 43.7106C88.6319 43.7106 100.117 42.8124 100.117 42.8124C103.943 42.5875 104.392 48.1912 100.572 48.6423C100.572 48.6423 96.7213 49.0935 92.4539 49.317L118.085 125.399L125.16 101.808C128.226 92.019 130.56 84.9877 130.56 78.9288ZM83.9231 88.6912L62.6427 150.397C68.9966 152.261 75.7162 153.28 82.6788 153.28C90.9383 153.28 98.8591 151.855 106.232 149.268C106.042 148.965 105.869 148.643 105.727 148.293L83.9231 88.6912ZM144.914 48.544C145.219 50.7984 145.392 53.2185 145.392 55.8217C145.392 63.0038 144.048 71.0774 139.999 81.1724L118.334 143.678C139.42 131.408 153.603 108.612 153.603 82.5017C153.604 70.1966 150.454 58.6256 144.914 48.544ZM82.6788 0C37.0909 0 0 37.0093 0 82.5003C0 127.997 37.0909 165.005 82.6788 165.005C128.265 165.005 165.362 127.997 165.362 82.5003C165.36 37.0093 128.265 0 82.6788 0ZM82.6788 161.223C39.1814 161.223 3.79101 125.908 3.79101 82.5003C3.79101 39.0954 39.18 3.78295 82.6788 3.78295C126.175 3.78295 161.563 39.0954 161.563 82.5003C161.563 125.908 126.175 161.223 82.6788 161.223Z" fill="#464342"/>
</g>
<defs>
<clipPath id="clip0_34_104">
<rect width="166" height="165" fill="white"/>
</clipPath>
</defs>
</svg>
