<svg width="300" height="97" viewBox="0 0 300 97" fill="none" xmlns="http://www.w3.org/2000/svg">
<g clip-path="url(#clip0_34_131)">
<path d="M0 0H300V96.2094H0V0ZM84.9261 72.5589L84.9209 63.9564H79.6474V45.8387C79.6474 36.4324 73.1397 32.1234 66.0202 32.1234C59.777 32.1234 55.2969 35.3798 53.0983 40.6533C51.1641 34.8509 45.8802 32.1234 40.1763 32.1234C34.6435 32.1234 30.5108 34.6746 28.1359 38.8903V32.9167H11.0915V41.5296H16.7954V63.9564H11.5219V72.5693H35.6961V63.9564H28.1566V50.1425C28.1566 44.6046 30.3552 40.7363 35.805 40.7363C40.2904 40.7363 42.5719 43.3756 42.5719 50.2307V72.5693H59.1652V63.9564H53.9175V50.1425C53.9175 44.6046 56.1162 40.7363 61.566 40.7363C66.0462 40.7363 68.3329 43.3756 68.3329 50.2307V72.5589H84.9261ZM110.153 73.4352V73.4404C122.81 73.4404 131.952 65.4394 131.942 52.7767C131.942 41.7008 124.983 32.1182 110.754 32.1182C96.5258 32.1182 89.4944 41.7008 89.4944 53.3056C89.4944 65.9631 97.9362 73.4352 110.153 73.4352ZM110.589 40.8244C115.955 40.8244 120.259 44.4283 120.275 52.4293C120.275 59.9896 116.407 64.7342 110.516 64.7342C104.345 64.7342 101.182 59.4606 101.182 52.6056C101.182 45.1283 104.786 40.8244 110.589 40.8244ZM173.269 72.5589L175.707 58.6777L166.741 57.8013L164.895 63.9564H152.082L174.068 38.8903L173.192 32.9115H138.346L136.941 46.8032L145.118 47.6795L146.876 41.5245H159.269L137.49 66.5802L138.631 72.5589H173.269ZM194.716 47.1506V32.9167H182.847V47.1506H194.716ZM194.716 72.5589V58.3199H182.847V72.5589H194.716ZM200.939 72.5589H212.118L229.261 12.1027H218.097L200.939 72.5589ZM223.972 72.5589H235.152L252.284 12.1027H241.12L223.972 72.5589ZM283.044 73.4352L283.059 73.4404C285.556 73.4088 288.007 72.768 290.2 71.5737L290.111 65.5949C289.57 65.7619 289.008 65.851 288.442 65.8594C286.591 65.8594 285.714 65.066 285.714 62.7793V45.5483C285.714 36.4946 278.507 32.0974 269.977 32.0974C263.469 32.0974 259.953 32.9115 253.01 35.7272L251.252 46.0098L260.306 46.9795L261.773 41.3533C263.619 40.3889 265.465 40.2126 267.84 40.2126C274.26 40.2126 274.348 45.0453 274.348 49.0899V50.407C272.188 50.1534 270.015 50.0357 267.84 50.0544C258.787 50.0544 249.38 52.3359 249.38 62.0948C249.38 70.3551 255.893 73.4352 261.597 73.4352C268.011 73.4352 272.056 69.5669 274.343 65.5223C274.872 70.3551 277.77 73.4352 283.044 73.4352ZM261.084 60.7777C261.084 56.4739 264.599 55.3331 268.66 55.3383C270.57 55.3809 272.476 55.5542 274.363 55.8568C274.104 62.4474 269.795 65.3512 265.751 65.3512C262.313 65.3512 261.084 63.3289 261.084 60.7777Z" fill="#444143"/>
</g>
<defs>
<clipPath id="clip0_34_131">
<rect width="300" height="96.6797" fill="white"/>
</clipPath>
</defs>
</svg>
