<svg width="300" height="69" viewBox="0 0 300 69" fill="none" xmlns="http://www.w3.org/2000/svg">
<g clip-path="url(#clip0_34_87)">
<path d="M62.9717 67.2102H9.57874C6.08175 67.2102 2.67006 65.3337 1.0495 62.1779C-0.826927 58.5104 -0.144588 54.1605 2.75535 51.3458L39.9428 14.1585H13.2463C5.91117 14.1585 0.0259963 8.18804 0.0259963 0.938213H49.2397C52.7366 0.938213 56.1483 2.81464 57.7689 5.97044C59.6453 9.638 58.963 13.9879 56.063 16.8025L18.8756 53.9899H49.6661C57.0013 53.9899 62.9717 59.9603 62.9717 67.2102ZM274.326 0C266.65 0 259.826 3.32639 255.05 8.6145C250.274 3.32639 243.45 0 235.774 0C221.615 0 210.016 12.1115 210.016 26.27V67.2102C217.351 67.2102 223.236 61.2397 223.236 53.9899V26.1847C223.236 19.3613 228.524 13.5614 235.348 13.3056C242.512 13.0497 248.397 18.7643 248.397 25.8435V53.9899C248.397 61.325 254.368 67.2102 261.618 67.2102V26.0994C261.618 19.276 266.906 13.4761 273.729 13.2203C280.894 12.9644 286.779 18.679 286.779 25.7582V53.9046C286.779 61.2397 292.749 67.1249 300 67.1249V26.1847C300.084 12.1115 288.485 0 274.326 0ZM129.841 34.1168C129.841 52.9664 114.574 68.2337 95.724 68.2337C76.8744 68.2337 61.607 52.9664 61.607 34.1168C61.607 15.2673 76.8744 0 95.724 0C114.574 0 129.841 15.2673 129.841 34.1168ZM116.621 34.1168C116.621 22.6024 107.238 13.2203 95.724 13.2203C84.2095 13.2203 74.8274 22.6024 74.8274 34.1168C74.8274 45.6313 84.2095 55.0134 95.724 55.0134C107.238 55.0134 116.621 45.6313 116.621 34.1168ZM203.363 34.1168C203.363 52.9664 188.096 68.2337 169.246 68.2337C150.396 68.2337 135.129 52.9664 135.129 34.1168C135.129 15.2673 150.396 0 169.246 0C188.096 0 203.363 15.2673 203.363 34.1168ZM190.143 34.1168C190.143 22.6024 180.76 13.2203 169.246 13.2203C157.731 13.2203 148.349 22.6024 148.349 34.1168C148.349 45.6313 157.731 55.0134 169.246 55.0134C180.76 55.0134 190.143 45.6313 190.143 34.1168Z" fill="#444143"/>
</g>
<defs>
<clipPath id="clip0_34_87">
<rect width="300" height="68.5547" fill="white"/>
</clipPath>
</defs>
</svg>
