<svg width="350" height="55" viewBox="0 0 350 55" fill="none" xmlns="http://www.w3.org/2000/svg">
<path d="M332.301 23.5445V30.8419H337.429V38.082C337.443 38.6366 337.419 39.2285 337.342 39.7378L337.299 39.9851C337.29 40.0402 337.28 40.0969 337.268 40.155L337.227 40.333C337.219 40.3633 337.21 40.3939 337.201 40.4247L337.142 40.6125C336.68 41.9457 335.292 43.635 332.172 43.635C328.849 43.635 327.515 41.6957 327.15 40.333L327.107 40.155L327.075 39.9851C326.983 39.4268 326.944 38.729 326.944 38.082V15.2141C326.944 14.495 326.987 13.7156 327.117 13.0807L327.205 12.6948C327.211 12.6681 327.218 12.6409 327.225 12.6134L327.274 12.4434C327.283 12.4144 327.292 12.385 327.302 12.3553L327.366 12.1736C327.84 10.9102 329.094 9.22738 332.145 9.22738C334.5 9.22738 335.768 10.187 336.445 11.1788L336.566 11.3649C336.604 11.4269 336.639 11.4888 336.673 11.5504L336.768 11.734L336.851 11.9142L336.923 12.0897L336.985 12.2592L337.038 12.4213L337.082 12.5747L337.118 12.7179L337.146 12.8497C337.16 12.9152 337.171 12.9848 337.182 13.0571L337.212 13.2811C337.217 13.3194 337.221 13.3581 337.225 13.3969L337.256 13.7482L337.277 14.0851L337.294 14.5444L337.299 14.7797V17.5566H349.9L349.902 15.828L349.91 15.2098L349.908 14.7306L349.897 14.1726L349.887 13.8722L349.864 13.404L349.832 12.9243L349.804 12.6036C348.952 4.15617 342.602 0.906078 334.876 0.340533L334.359 0.30678L333.839 0.280815C333.577 0.269753 333.315 0.261549 333.051 0.25611L332.522 0.248894C332.433 0.247999 332.345 0.247999 332.256 0.247999L331.724 0.251623C331.636 0.252835 331.548 0.254354 331.46 0.256183L330.934 0.270899L330.411 0.293212L329.893 0.323284L329.379 0.361275C329.208 0.375277 329.038 0.390626 328.869 0.407348L328.364 0.461664C328.28 0.471412 328.197 0.481511 328.113 0.491963L327.616 0.558946C326.461 0.725264 325.351 0.962195 324.298 1.27897L323.851 1.41965C318.968 3.02145 315.42 6.42706 314.692 12.6036L314.617 13.2893L314.565 13.8201L314.517 14.3767L314.477 14.9304C314.454 15.2922 314.44 15.6331 314.44 15.915L314.441 37.2211L314.444 37.4855L314.455 37.8875L314.468 38.1692L314.485 38.4702L314.508 38.7974L314.536 39.158L314.592 39.7766L314.639 40.2511C315.346 48.101 321.296 51.593 328.576 52.4169L329.086 52.4701C329.94 52.5515 330.81 52.5975 331.691 52.6105L332.221 52.6144L332.753 52.6105C333.639 52.5975 334.513 52.5515 335.37 52.4701L335.882 52.4169C343.186 51.593 349.097 48.101 349.816 40.2511L349.875 39.5588L349.918 38.9731L349.956 38.3169L349.98 37.7516L350 36.9513V23.5445H332.301ZM245.414 1.59401H232.76V38.6095C232.78 39.2546 232.76 39.9793 232.649 40.5106L232.612 40.6717L232.565 40.8432C232.549 40.9019 232.53 40.9621 232.51 41.0235L232.443 41.2113C231.966 42.4839 230.75 44.1445 227.841 44.1445C225.112 44.1445 223.867 42.6458 223.345 41.4048L223.268 41.2113C223.257 41.1795 223.245 41.1479 223.234 41.1166L223.175 40.9323L223.125 40.7562C223.118 40.7276 223.111 40.6994 223.104 40.6717L223.069 40.5106C222.943 39.9793 222.927 39.2546 222.943 38.6095V1.59401H210.292V37.4608L210.29 37.7491L210.294 38.2533L210.312 38.9952L210.347 39.8968L210.371 40.3508L210.387 40.5917L210.403 40.7689C211.023 47.4048 214.916 50.8588 220.414 52.3041L220.883 52.4215C221.906 52.6656 222.981 52.8434 224.098 52.9622L224.617 53.0129L225.141 53.0553L225.671 53.0897C225.937 53.1049 226.205 53.1171 226.475 53.1264L227.018 53.1413L227.565 53.1487C227.657 53.1496 227.749 53.1496 227.841 53.1496L228.391 53.1459C228.483 53.1447 228.574 53.1432 228.665 53.1413L229.208 53.1264C229.479 53.1171 229.748 53.1049 230.014 53.0897L230.545 53.0553L231.07 53.0129L231.589 52.9622C238.991 52.1763 244.542 48.8067 245.307 40.7689L245.317 40.689L245.338 40.4784L245.369 40.0585L245.396 39.5503L245.411 39.1829L245.426 38.6194L245.431 38.2533L245.429 37.9092L245.421 37.5991C245.419 37.551 245.417 37.5048 245.414 37.4608V1.59401ZM129.144 1.59401L122.832 40.706L116.523 1.59401H96.1106L95.028 51.6295H107.533L107.872 5.31014L116.476 51.6295H129.164L137.776 5.31014L138.116 51.6295H150.652L149.533 1.59401H129.144ZM53.5678 1.59401L44.2993 51.6295H57.8153L64.7997 5.31014L71.6165 51.6295H85.0386L75.8087 1.59401H53.5678ZM289.639 41.8785L277.856 1.59401H259.288V51.1078H271.571L270.858 9.53449L283.512 51.1078H301.32V1.59401H288.957L289.639 41.8785ZM176.023 14.6159C175.801 13.6278 175.865 12.5779 175.98 12.0293C176.013 11.8836 176.051 11.7368 176.097 11.5902L176.17 11.3707C176.669 9.98359 177.837 8.68062 180.515 8.68062C183.405 8.68062 185.099 10.4822 185.099 13.1857V16.2452H197.435V12.7578C197.435 4.88777 192.284 1.86034 186.78 0.799255L186.327 0.716412L185.873 0.642069L185.419 0.575872L184.965 0.517466L184.511 0.466496L184.059 0.422607C183.909 0.409119 183.758 0.396751 183.609 0.385445L183.161 0.354655L182.717 0.32988L182.276 0.310768L181.84 0.296962L181.408 0.288108L180.771 0.283336L180.491 0.284325L179.933 0.292289C179.84 0.294286 179.748 0.296621 179.655 0.299296L179.105 0.319446C178.922 0.327536 178.74 0.337009 178.559 0.347885L178.019 0.384748C170.493 0.960415 164.62 4.05164 163.446 11.3007C163.098 13.5083 163.012 15.4678 163.565 17.9684C164.436 22.0775 167.859 25.0015 171.788 27.454L172.396 27.8277C172.498 27.8894 172.601 27.9508 172.703 28.012L173.32 28.3756L173.941 28.7332L174.564 29.0854L175.499 29.6048L177.957 30.9514L178.554 31.2825L179.141 31.6125L179.716 31.9419L180.277 32.2714C182.955 33.8652 185.101 35.4816 185.873 37.4139C186.3 38.5618 186.207 40.009 186 40.9323L185.965 41.0812C185.914 41.3031 185.849 41.5253 185.769 41.7436L185.682 41.9604C185.114 43.2882 183.872 44.4202 181.142 44.4202C178.029 44.4202 176.155 42.6302 176.155 39.9324L176.151 35.1305H162.873V38.9475C162.873 47.9064 168.557 51.798 175.676 52.9534L176.206 53.0341C176.561 53.0845 176.919 53.1284 177.28 53.1661L177.823 53.218C178.459 53.2731 179.103 53.3095 179.751 53.3286L180.308 53.3409C180.401 53.3422 180.494 53.3433 180.587 53.3439L180.867 53.3449C181.053 53.3449 181.239 53.3436 181.424 53.3409L181.976 53.3289C182.067 53.3262 182.159 53.3231 182.25 53.3198L182.795 53.2954C182.976 53.2859 183.156 53.275 183.336 53.2626L183.871 53.2214C184.226 53.191 184.577 53.155 184.924 53.113L185.442 53.0456L185.954 52.9693C186.124 52.9423 186.292 52.9138 186.46 52.8838L186.958 52.7892C192.984 51.5818 197.468 48.308 198.368 42.0134C198.492 41.0746 198.569 40.2076 198.61 39.415L198.632 38.8977C198.635 38.8133 198.637 38.7299 198.64 38.6474L198.648 38.1635V37.702L198.64 37.2633L198.626 36.8474L198.606 36.4544C198.602 36.3909 198.598 36.3283 198.594 36.2666L198.566 35.9085L198.535 35.5739L198.501 35.2628L198.446 34.8408L198.389 34.4728L198.315 34.0673L198.28 33.9014C197.412 29.5442 193.597 26.4666 189.359 23.9333L188.751 23.575L188.139 23.2237L187.524 22.8788L186.601 22.3725L185.377 21.7156L183.289 20.6052L182.43 20.1404C182.336 20.089 182.243 20.0377 182.15 19.9865L181.601 19.6799L181.066 19.3745C178.437 17.85 176.45 16.3531 176.023 14.6159ZM13.2994 14.4932C13.0724 13.5475 13.1079 12.5527 13.2244 11.9747L13.2726 11.7583L13.3273 11.5441C13.744 10.0416 14.8834 8.49302 17.8283 8.49302C20.7548 8.49302 22.478 10.3119 22.478 13.0373V16.1341H34.9582V12.6191C34.9582 5.10886 30.2861 1.9548 25.0654 0.721015L24.6101 0.61851C24.2298 0.537024 23.8472 0.46525 23.4639 0.402262L23.0037 0.330834L22.5434 0.267485L22.0837 0.211858L21.6252 0.163597C21.4726 0.148699 21.3203 0.134969 21.1684 0.122348L20.7139 0.0877525L20.2625 0.0594563L19.8145 0.0371029L19.3708 0.0203365L18.9318 0.00880117L18.2836 0H18.0705C17.8834 0 17.697 0.00130761 17.5114 0.00394401L16.9569 0.0158608C16.5887 0.0264911 16.2238 0.0425213 15.8624 0.0641208L15.323 0.100718C15.2336 0.107521 15.1443 0.114677 15.0554 0.122189L14.5243 0.171556C14.3483 0.18945 14.1732 0.208789 13.9992 0.229594L13.4802 0.296432C13.0503 0.355831 12.6271 0.424527 12.2111 0.502853L11.7154 0.601486L11.227 0.70949L10.746 0.826992C10.587 0.867757 10.4292 0.910125 10.2728 0.954119L9.80742 1.091C4.96395 2.57986 1.47348 5.70246 0.592371 11.1208C0.228725 13.3637 0.166404 15.3368 0.691956 17.865C1.61721 22.2339 5.39088 25.2764 9.61271 27.8329L10.2335 28.2037C10.3374 28.2649 10.4415 28.3259 10.5457 28.3866L11.1729 28.7481L12.1174 29.2801L13.3747 29.9738L15.2292 30.9901L16.1301 31.4916L17.0059 31.9913L17.5731 32.3244C17.6664 32.38 17.759 32.4355 17.851 32.4912L18.3945 32.8255C20.7124 34.2773 22.5277 35.7725 23.2284 37.5257C23.6873 38.6657 23.58 40.1125 23.3631 41.0658L23.3261 41.2199C23.2725 41.4393 23.2067 41.659 23.1254 41.8751L23.0388 42.09C22.4558 43.4412 21.2045 44.6001 18.4393 44.6001C15.3136 44.6001 13.444 42.7793 13.444 40.0442L13.4266 35.2294H0V39.0554C0 49.7949 8.09716 53.3248 17.0645 53.59L17.626 53.6023L18.1894 53.6064L18.7465 53.6025C19.024 53.5985 19.2998 53.5916 19.5739 53.5816L20.1196 53.5575C20.3912 53.5434 20.661 53.5261 20.9288 53.5058L21.4617 53.4608L21.9889 53.4072C22.1638 53.388 22.3376 53.3672 22.5104 53.345L23.0258 53.274C23.1966 53.2489 23.3663 53.2223 23.5349 53.1941L24.0375 53.1052C30.2777 51.9367 34.9284 48.6266 35.8648 42.1522C35.9938 41.2273 36.0744 40.3716 36.1195 39.5874L36.1444 39.0753L36.1596 38.5845C36.1631 38.4245 36.1652 38.268 36.1659 38.1152L36.1643 37.6676L36.1555 37.2417L36.1403 36.8379L36.1197 36.4561L36.0945 36.0966L36.0654 35.7596L36.0166 35.2964L35.9641 34.8845L35.893 34.416L35.8121 33.9618C34.9462 29.6562 31.2455 26.5931 27.0817 24.0737L26.4694 23.7088C26.3669 23.6486 26.2642 23.5887 26.1613 23.5291L25.5421 23.1749L24.9204 22.8273L24.298 22.4858L23.6763 22.1498L20.9334 20.6938L20.0563 20.2237L19.4866 19.9132L18.9311 19.6042L18.3912 19.2965C18.3026 19.2453 18.2147 19.1941 18.1276 19.143L17.6144 18.8361C15.3481 17.4557 13.684 16.0746 13.2994 14.4932Z" fill="#444143"/>
</svg>
