<svg width="150" height="185" viewBox="0 0 150 185" fill="none" xmlns="http://www.w3.org/2000/svg">
<path d="M125.275 97.7047C125.534 125.536 149.732 134.797 150 134.916C149.795 135.569 146.134 148.114 137.252 161.073C129.573 172.276 121.604 183.438 109.051 183.669C96.716 183.896 92.7497 176.367 78.6473 176.367C64.5492 176.367 60.1423 183.438 48.4659 183.896C36.3487 184.354 27.1215 171.781 19.3795 160.619C3.55974 137.786 -8.52985 96.0993 7.70342 67.9598C15.7678 53.9856 30.1794 45.1365 45.8218 44.9096C57.7207 44.683 68.9517 52.9012 76.2256 52.9012C83.4949 52.9012 97.143 43.0181 111.491 44.4696C117.497 44.7191 134.358 46.8917 145.184 62.7121C144.312 63.252 125.066 74.4368 125.275 97.7047ZM102.093 29.3637C108.526 21.5898 112.856 10.7678 111.675 0C102.402 0.372058 91.1892 6.16876 84.538 13.9384C78.5772 20.8188 73.3569 31.8312 74.7654 42.3859C85.1011 43.1842 95.6598 37.1426 102.093 29.3637Z" fill="#444143"/>
</svg>
