<svg width="160" height="168" viewBox="0 0 160 168" fill="none" xmlns="http://www.w3.org/2000/svg">
<g clip-path="url(#clip0_34_90)">
<path d="M10.0578 7.23307L102.556 0.381165C113.918 -0.59688 116.838 0.0626019 123.981 5.27139L153.508 26.1345C158.378 29.7225 160 30.7006 160 34.6072V149.027C160 156.198 157.403 160.44 148.315 161.088L40.8999 167.61C34.0795 167.934 30.831 166.956 27.2592 162.39L5.51647 134.032C1.61594 128.812 0 124.906 0 120.34V18.6343C0 12.7716 2.59664 7.88137 10.0578 7.23307Z" fill="white"/>
<path d="M102.556 0.381165L10.0578 7.23307C2.59664 7.88137 0 12.7716 0 18.6343V120.34C0 124.906 1.61594 128.812 5.51647 134.032L27.2592 162.39C30.831 166.956 34.0795 167.934 40.8999 167.61L148.315 161.088C157.398 160.44 160 156.198 160 149.027V34.6072C160 30.9018 158.54 29.8343 154.244 26.671C153.997 26.4924 153.75 26.3136 153.503 26.1345L123.981 5.27139C116.838 0.0626019 113.918 -0.59688 102.556 0.381165ZM43.3294 32.7349C34.5588 33.3273 32.5695 33.4614 27.5879 29.3984L14.9223 19.2938C13.6352 17.986 14.2815 16.354 17.5246 16.0299L106.446 9.51331C113.912 8.85942 117.802 11.4694 120.722 13.7496L135.973 24.8323C136.625 25.162 138.246 27.1125 136.296 27.1125L44.4661 32.6566L43.3294 32.7349ZM33.1044 148.049V50.9154C33.1044 46.6734 34.4027 44.7173 38.2921 44.3876L143.763 38.1952C147.34 37.871 148.956 40.1513 148.956 44.3876V140.873C148.956 145.115 148.304 148.703 142.464 149.027L41.5351 154.896C35.6955 155.22 33.1044 153.269 33.1044 148.049ZM132.735 56.1241C133.382 59.0583 132.735 61.9924 129.81 62.3277L124.945 63.2946V135.01C120.722 137.291 116.832 138.593 113.584 138.593C108.39 138.593 107.092 136.961 103.203 132.076L71.391 81.8775V130.444L81.4543 132.73C81.4543 132.73 81.4543 138.598 73.3357 138.598L50.9521 139.901C50.3002 138.593 50.9522 135.335 53.22 134.686L59.0653 133.06V68.8443L50.9521 68.1848C50.3002 65.2507 51.9217 61.0144 56.4686 60.6846L80.4848 59.0639L113.584 109.911V64.9265L105.147 63.9541C104.495 60.3605 107.092 57.7505 110.335 57.4319L132.735 56.1241Z" fill="#444143"/>
</g>
<defs>
<clipPath id="clip0_34_90">
<rect width="160" height="168" fill="white"/>
</clipPath>
</defs>
</svg>
