<svg width="165" height="165" viewBox="0 0 165 165" fill="none" xmlns="http://www.w3.org/2000/svg">
<g style="mix-blend-mode:luminosity" clip-path="url(#clip0_34_94)">
<path d="M82.5 165C128.063 165 165 128.063 165 82.5C165 36.9365 128.063 0 82.5 0C36.9365 0 0 36.9365 0 82.5C0 128.063 36.9365 165 82.5 165Z" fill="#FFE121"/>
<path d="M78.8906 39.1875V94.875C63.4219 94.875 51.0469 82.5 51.0469 67.0312C51.0469 51.5625 63.4219 39.1875 78.8906 39.1875ZM86.1094 125.812V70.125C101.578 70.125 113.953 82.5 113.953 97.9687C113.953 113.188 101.974 125.412 86.8554 125.803L86.1094 125.812ZM99.2578 39.1875C106.477 39.1875 112.406 45.1172 112.406 52.3359C112.406 59.5547 106.477 65.4844 99.2578 65.4844C92.0391 65.4844 86.1094 59.5547 86.1094 52.3359C86.1094 45.1172 92.0391 39.1875 99.2578 39.1875ZM65.7422 99.5156C72.9609 99.5156 78.8906 105.445 78.8906 112.664C78.8906 119.883 72.9609 125.812 65.7422 125.812C58.5234 125.812 52.5938 119.883 52.5938 112.664C52.5938 105.445 58.5234 99.5156 65.7422 99.5156Z" fill="black"/>
</g>
<defs>
<clipPath id="clip0_34_94">
<rect width="165" height="165" fill="white"/>
</clipPath>
</defs>
</svg>
