<svg width="40" height="40" viewBox="0 0 40 40" fill="none" xmlns="http://www.w3.org/2000/svg">
<path d="M9.75004 28.5C11.1667 27.4167 12.75 26.5622 14.5 25.9366C16.25 25.3111 18.0834 24.9989 20 25C21.9167 25 23.75 25.3128 25.5 25.9383C27.25 26.5639 28.8334 27.4178 30.25 28.5C31.2223 27.3611 31.9795 26.0694 32.5217 24.625C33.0639 23.1805 33.3345 21.6389 33.3334 20C33.3334 16.3055 32.035 13.1594 29.4384 10.5616C26.8417 7.96387 23.6956 6.66554 20 6.66665C16.3056 6.66665 13.1595 7.96498 10.5617 10.5616C7.96393 13.1583 6.6656 16.3044 6.66671 20C6.66671 21.6389 6.93782 23.1805 7.48004 24.625C8.02226 26.0694 8.77893 27.3611 9.75004 28.5ZM20 21.6666C18.3612 21.6666 16.9789 21.1044 15.8534 19.98C14.7278 18.8555 14.1656 17.4733 14.1667 15.8333C14.1667 14.1944 14.7289 12.8122 15.8534 11.6866C16.9778 10.5611 18.36 9.99887 20 9.99998C21.6389 9.99998 23.0212 10.5622 24.1467 11.6866C25.2723 12.8111 25.8345 14.1933 25.8334 15.8333C25.8334 17.4722 25.2712 18.8544 24.1467 19.98C23.0223 21.1055 21.64 21.6678 20 21.6666ZM20 36.6666C17.6945 36.6666 15.5278 36.2289 13.5 35.3533C11.4723 34.4778 9.70837 33.2905 8.20837 31.7917C6.70837 30.2917 5.52115 28.5278 4.64671 26.5C3.77226 24.4722 3.33449 22.3055 3.33337 20C3.33337 17.6944 3.77115 15.5278 4.64671 13.5C5.52226 11.4722 6.70949 9.70831 8.20837 8.20831C9.70837 6.70831 11.4723 5.52109 13.5 4.64665C15.5278 3.7722 17.6945 3.33442 20 3.33331C22.3056 3.33331 24.4723 3.77109 26.5 4.64665C28.5278 5.5222 30.2917 6.70942 31.7917 8.20831C33.2917 9.70831 34.4795 11.4722 35.355 13.5C36.2306 15.5278 36.6678 17.6944 36.6667 20C36.6667 22.3055 36.2289 24.4722 35.3534 26.5C34.4778 28.5278 33.2906 30.2917 31.7917 31.7917C30.2917 33.2917 28.5278 34.4794 26.5 35.355C24.4723 36.2305 22.3056 36.6678 20 36.6666ZM20 33.3333C21.4723 33.3333 22.8612 33.1178 24.1667 32.6866C25.4723 32.2555 26.6667 31.6378 27.75 30.8333C26.6667 30.0278 25.4723 29.4094 24.1667 28.9783C22.8612 28.5472 21.4723 28.3322 20 28.3333C18.5278 28.3333 17.1389 28.5489 15.8334 28.98C14.5278 29.4111 13.3334 30.0289 12.25 30.8333C13.3334 31.6389 14.5278 32.2572 15.8334 32.6883C17.1389 33.1194 18.5278 33.3344 20 33.3333ZM20 18.3333C20.7223 18.3333 21.3195 18.0972 21.7917 17.625C22.2639 17.1528 22.5 16.5555 22.5 15.8333C22.5 15.1111 22.2639 14.5139 21.7917 14.0416C21.3195 13.5694 20.7223 13.3333 20 13.3333C19.2778 13.3333 18.6806 13.5694 18.2084 14.0416C17.7362 14.5139 17.5 15.1111 17.5 15.8333C17.5 16.5555 17.7362 17.1528 18.2084 17.625C18.6806 18.0972 19.2778 18.3333 20 18.3333Z" fill="black"/>
</svg>
