<svg width="44" height="38" viewBox="0 0 44 38" fill="none" xmlns="http://www.w3.org/2000/svg">
<path d="M13.2083 37.75C11.8888 37.75 10.7603 37.2722 9.82283 36.3167C8.88533 35.3611 8.41658 34.2243 8.41658 32.9062V13.5833L4.6145 4.41667H0.083252V0.25H7.427L10.8645 8.58333H41.6458C42.4444 8.58333 43.052 8.91319 43.4687 9.57292C43.8853 10.2326 43.9027 10.9097 43.5208 11.6042L37.5833 23.2187C39.3541 23.4965 40.8388 24.3125 42.0374 25.6667C43.236 27.0208 43.8346 28.6181 43.8333 30.4583C43.8333 32.4722 43.1305 34.191 41.7249 35.6146C40.3194 37.0382 38.6082 37.75 36.5916 37.75C34.543 37.75 32.8159 37.0382 31.4103 35.6146C30.0048 34.191 29.302 32.4722 29.302 30.4583C29.302 29.7639 29.3888 29.1215 29.5624 28.5312C29.736 27.941 29.9791 27.3681 30.2916 26.8125L23.4687 26.1875L17.2187 35.5625C16.7673 36.2569 16.1853 36.7951 15.4728 37.1771C14.7603 37.559 14.0055 37.75 13.2083 37.75ZM13.2603 33.5312C13.3298 33.5312 13.486 33.4444 13.7291 33.2708L18.7812 25.7708C17.0798 25.5972 15.743 25.1896 14.7708 24.5479C13.7985 23.9062 13.0694 23.2375 12.5833 22.5417V32.9583C12.5833 33.1319 12.6527 33.2708 12.7916 33.375C12.9305 33.4792 13.0867 33.5312 13.2603 33.5312ZM36.5416 33.5833C37.4444 33.5833 38.1909 33.2792 38.7812 32.6708C39.3714 32.0625 39.6666 31.325 39.6666 30.4583C39.6666 29.5556 39.3714 28.809 38.7812 28.2187C38.1909 27.6285 37.4444 27.3333 36.5416 27.3333C35.6735 27.3333 34.9353 27.6285 34.327 28.2187C33.7187 28.809 33.4152 29.5556 33.4166 30.4583C33.4166 31.3264 33.7207 32.0646 34.3291 32.6729C34.9374 33.2812 35.6749 33.5847 36.5416 33.5833Z" fill="white"/>
</svg>
