<svg width="48" height="62" viewBox="0 0 48 62" fill="none" xmlns="http://www.w3.org/2000/svg">
<g clip-path="url(#clip0_41_172)" filter="url(#filter0_d_41_172)">
<path d="M16.8988 41.7446C16.8988 41.7446 14.8366 42.9425 18.3665 43.3479C22.6428 43.8352 24.8284 43.7653 29.541 42.8744C29.541 42.8744 30.78 43.6504 32.5103 44.3224C21.946 48.8449 8.60109 44.0605 16.8988 41.7446Z" fill="#5382A1"/>
<path d="M15.6081 35.8428C15.6081 35.8428 13.2951 37.5529 16.8276 37.9179C21.3957 38.3886 25.0033 38.4271 31.2458 37.2265C31.2458 37.2265 32.1092 38.1008 33.4669 38.579C20.6939 42.3096 6.46715 38.8732 15.6081 35.8428Z" fill="#5382A1"/>
<path d="M26.4906 25.8317C29.0936 28.8252 25.8067 31.5189 25.8067 31.5189C25.8067 31.5189 32.4163 28.1108 29.3808 23.843C26.5457 19.863 24.3716 17.8855 36.1413 11.0674C36.1413 11.0674 17.6667 15.6762 26.4906 25.8317Z" fill="#E76F00"/>
<path d="M40.4629 46.1097C40.4629 46.1097 41.989 47.3657 38.7822 48.3374C32.6843 50.1825 13.4021 50.7397 8.04562 48.4109C6.1201 47.5742 9.731 46.4131 10.8669 46.1694C12.0514 45.9129 12.7284 45.9607 12.7284 45.9607C10.587 44.4539 -1.11263 48.9193 6.78555 50.1981C28.325 53.6871 46.05 48.6269 40.4629 46.1097Z" fill="#5382A1"/>
<path d="M17.8906 29.728C17.8906 29.728 8.0825 32.0549 14.4173 32.8999C17.0921 33.2576 22.4242 33.1767 27.3909 32.761C31.4499 32.419 35.5257 31.6918 35.5257 31.6918C35.5257 31.6918 34.0944 32.3041 33.0589 33.0103C23.0989 35.6268 3.85807 34.4096 9.39727 31.7333C14.0818 29.4714 17.8906 29.728 17.8906 29.728Z" fill="#5382A1"/>
<path d="M35.4852 39.5517C45.61 34.2965 40.9287 29.2464 37.6612 29.9267C36.8604 30.0932 36.5033 30.2375 36.5033 30.2375C36.5033 30.2375 36.8006 29.7723 37.3684 29.5709C43.8326 27.301 48.8039 36.2659 35.2817 39.8165C35.2817 39.8165 35.4384 39.6768 35.4852 39.5517Z" fill="#5382A1"/>
<path d="M29.3809 0.0581055C29.3809 0.0581055 34.9882 5.66079 24.0626 14.2761C15.3015 21.1871 22.0648 25.1276 24.059 29.6297C18.945 25.0209 15.1919 20.9638 17.7098 17.1878C21.4053 11.645 31.6433 8.95762 29.3809 0.0581055Z" fill="#E76F00"/>
<path d="M18.8854 53.792C28.6039 54.4134 43.5279 53.4472 43.8813 48.854C43.8813 48.854 43.2019 50.5953 35.8495 51.9781C27.5545 53.5373 17.3238 53.3553 11.2559 52.356C11.2559 52.356 12.498 53.3829 18.8854 53.792Z" fill="#5382A1"/>
</g>
<defs>
<filter id="filter0_d_41_172" x="0" y="0" width="48" height="62" filterUnits="userSpaceOnUse" color-interpolation-filters="sRGB">
<feFlood flood-opacity="0" result="BackgroundImageFix"/>
<feColorMatrix in="SourceAlpha" type="matrix" values="0 0 0 0 0 0 0 0 0 0 0 0 0 0 0 0 0 0 127 0" result="hardAlpha"/>
<feOffset dy="4"/>
<feGaussianBlur stdDeviation="2"/>
<feColorMatrix type="matrix" values="0 0 0 0 0 0 0 0 0 0 0 0 0 0 0 0 0 0 0.25 0"/>
<feBlend mode="normal" in2="BackgroundImageFix" result="effect1_dropShadow_41_172"/>
<feBlend mode="normal" in="SourceGraphic" in2="effect1_dropShadow_41_172" result="shape"/>
</filter>
<clipPath id="clip0_41_172">
<rect width="40" height="54" fill="white" transform="translate(4)"/>
</clipPath>
</defs>
</svg>
