<svg width="53" height="54" viewBox="0 0 53 54" fill="none" xmlns="http://www.w3.org/2000/svg">
<g clip-path="url(#clip0_41_202)" filter="url(#filter0_d_41_202)">
<path d="M46.044 18.7897C47.076 15.662 46.7188 12.2384 45.0638 9.3946C42.5755 5.03502 37.5742 2.79249 32.6898 3.84622C29.9372 0.764566 25.7608 -0.605782 21.7326 0.251008C17.7045 1.1078 14.436 4.06167 13.1575 8.00071C9.94908 8.66295 7.17991 10.6849 5.5586 13.5491C3.04314 17.9016 3.61408 23.3919 6.97047 27.1259C5.93466 30.2522 6.28862 33.6762 7.94169 36.521C10.4332 40.882 15.4377 43.1244 20.3247 42.0694C22.4985 44.533 25.6213 45.9347 28.8948 45.9163C33.9013 45.9208 38.3367 42.6678 39.866 37.8696C43.0739 37.2063 45.8427 35.1847 47.4649 32.3212C49.95 27.9764 49.3766 22.5157 46.044 18.7897ZM28.8948 42.9111C26.8965 42.9143 24.9608 42.2094 23.4272 40.9199L23.697 40.766L32.7797 35.4892C33.2396 35.2177 33.5232 34.7224 33.5261 34.1858V21.2969L37.366 23.5325C37.4044 23.5523 37.4312 23.5893 37.438 23.6321V34.3125C37.4281 39.0573 33.609 42.9012 28.8948 42.9111ZM10.5316 35.0185C9.52946 33.2768 9.16964 31.2352 9.51542 29.2529L9.7852 29.4158L18.8769 34.6927C19.335 34.9632 19.9026 34.9632 20.3607 34.6927L31.4668 28.2482V32.7104C31.4647 32.7573 31.4415 32.8006 31.4038 32.8281L22.2042 38.1683C18.1162 40.5387 12.8932 39.1293 10.5316 35.0185ZM8.13953 15.1059C9.14863 13.353 10.7414 12.016 12.6359 11.3315V22.193C12.629 22.7274 12.9115 23.2234 13.3733 23.4873L24.4254 29.9046L20.5855 32.1402C20.5433 32.1627 20.4928 32.1627 20.4506 32.1402L11.269 26.8091C7.18901 24.4289 5.78976 19.1759 8.13953 15.0606V15.1059ZM39.6862 22.4826L28.5981 16.002L32.429 13.7754C32.4712 13.7528 32.5217 13.7528 32.5639 13.7754L41.7455 19.1156C44.6112 20.7799 46.2644 23.96 45.9891 27.2785C45.7139 30.597 43.5597 33.4571 40.4595 34.6202V23.7588C40.4434 23.2259 40.1495 22.741 39.6862 22.4826ZM43.5081 16.6989L43.2383 16.536L34.1646 11.2139C33.7037 10.9417 33.1327 10.9417 32.6718 11.2139L21.5747 17.6583V13.1961C21.5699 13.1499 21.5906 13.1047 21.6287 13.0784L30.8103 7.74728C33.683 6.08162 37.2533 6.23705 39.9723 8.14616C42.6914 10.0553 44.0692 13.374 43.5081 16.6627V16.6989ZM19.4794 24.6096L15.6395 22.383C15.6007 22.3594 15.5743 22.3196 15.5676 22.2744V11.6212C15.5719 8.28505 17.4912 5.25189 20.493 3.83716C23.4949 2.42243 27.0386 2.88094 29.5873 5.01382L29.3175 5.16769L20.2348 10.4445C19.7749 10.716 19.4913 11.2113 19.4884 11.7479L19.4794 24.6096ZM21.5657 20.084L26.5118 17.2148L31.4668 20.084V25.8225L26.5297 28.6917L21.5747 25.8225L21.5657 20.084Z" fill="white"/>
</g>
<defs>
<filter id="filter0_d_41_202" x="0" y="0" width="53" height="54" filterUnits="userSpaceOnUse" color-interpolation-filters="sRGB">
<feFlood flood-opacity="0" result="BackgroundImageFix"/>
<feColorMatrix in="SourceAlpha" type="matrix" values="0 0 0 0 0 0 0 0 0 0 0 0 0 0 0 0 0 0 127 0" result="hardAlpha"/>
<feOffset dy="4"/>
<feGaussianBlur stdDeviation="2"/>
<feColorMatrix type="matrix" values="0 0 0 0 0 0 0 0 0 0 0 0 0 0 0 0 0 0 0.25 0"/>
<feBlend mode="normal" in2="BackgroundImageFix" result="effect1_dropShadow_41_202"/>
<feBlend mode="normal" in="SourceGraphic" in2="effect1_dropShadow_41_202" result="shape"/>
</filter>
<clipPath id="clip0_41_202">
<rect width="45" height="46" fill="white" transform="translate(4)"/>
</clipPath>
</defs>
</svg>
