<svg width="42" height="42" viewBox="0 0 42 42" fill="none" xmlns="http://www.w3.org/2000/svg">
<path d="M21.0001 35.9998C15.7917 35.9998 11.1876 33.3332 8.50008 29.3332C8.56258 25.1665 16.8334 22.8748 21.0001 22.8748C25.1667 22.8748 33.4376 25.1665 33.5001 29.3332C32.1228 31.384 30.2623 33.0647 28.0825 34.2273C25.9027 35.3898 23.4705 35.9986 21.0001 35.9998ZM21.0001 6.4165C22.6577 6.4165 24.2474 7.07498 25.4195 8.24709C26.5916 9.41919 27.2501 11.0089 27.2501 12.6665C27.2501 14.3241 26.5916 15.9138 25.4195 17.0859C24.2474 18.258 22.6577 18.9165 21.0001 18.9165C19.3425 18.9165 17.7528 18.258 16.5807 17.0859C15.4086 15.9138 14.7501 14.3241 14.7501 12.6665C14.7501 11.0089 15.4086 9.41919 16.5807 8.24709C17.7528 7.07498 19.3425 6.4165 21.0001 6.4165ZM21.0001 0.166504C18.2642 0.166504 15.5551 0.705374 13.0275 1.75235C10.4999 2.79932 8.20324 4.33389 6.26869 6.26845C2.36168 10.1755 0.166748 15.4745 0.166748 20.9998C0.166748 26.5252 2.36168 31.8242 6.26869 35.7312C8.20324 37.6658 10.4999 39.2004 13.0275 40.2473C15.5551 41.2943 18.2642 41.8332 21.0001 41.8332C26.5254 41.8332 31.8245 39.6382 35.7315 35.7312C39.6385 31.8242 41.8334 26.5252 41.8334 20.9998C41.8334 9.479 32.4584 0.166504 21.0001 0.166504Z" fill="white"/>
</svg>
