<svg width="30" height="32" viewBox="0 0 30 32" fill="none" xmlns="http://www.w3.org/2000/svg">
<g clip-path="url(#clip0_28_34)">
<path d="M29.9857 15.8684C29.9857 14.592 29.8836 13.6606 29.6627 12.6947H15.2988V18.4555H23.7301C23.5602 19.8872 22.6423 22.0432 20.6024 23.492L20.5738 23.6849L25.1154 27.2548L25.43 27.2867C28.3198 24.5787 29.9857 20.5943 29.9857 15.8684Z" fill="#4285F4"/>
<path d="M15.2988 31.0468C19.4295 31.0468 22.8972 29.6669 25.43 27.2867L20.6024 23.492C19.3105 24.4062 17.5766 25.0444 15.2988 25.0444C11.2532 25.0444 7.81945 22.3365 6.59543 18.5936L6.41602 18.6091L1.69359 22.3175L1.63184 22.4917C4.14762 27.5626 9.31524 31.0468 15.2988 31.0468Z" fill="#34A853"/>
<path d="M6.59543 18.5936C6.27246 17.6277 6.08555 16.5928 6.08555 15.5234C6.08555 14.454 6.27246 13.4191 6.57844 12.4532L6.56988 12.2475L1.78828 8.47955L1.63184 8.55506C0.594961 10.6594 0 13.0224 0 15.5234C0 18.0244 0.594961 20.3873 1.63184 22.4916L6.59543 18.5936Z" fill="#FBBC05"/>
<path d="M15.2988 6.00235C18.1716 6.00235 20.1094 7.26146 21.2143 8.31368L25.532 4.03609C22.8803 1.5351 19.4294 0 15.2988 0C9.31523 0 4.14762 3.48412 1.63184 8.55506L6.57844 12.4532C7.81945 8.71035 11.2532 6.00235 15.2988 6.00235Z" fill="#EB4335"/>
</g>
<defs>
<clipPath id="clip0_28_34">
<rect width="30" height="31.1538" fill="white"/>
</clipPath>
</defs>
</svg>
